<svg width="31" height="23" viewBox="0 0 31 23" fill="none" xmlns="http://www.w3.org/2000/svg">
<path fill-rule="evenodd" clip-rule="evenodd" d="M27.3418 4H24.1394L21.1394 13H21C21 13.3425 21.0344 13.6769 21.1 14C21.5633 16.2822 23.581 18 26 18C28.419 18 30.4367 16.2822 30.9 14C30.9656 13.6769 31 13.3425 31 13H30.8418L27.3418 4ZM29.7688 13H22.1934L24.8601 5H26.6577L29.7688 13ZM29.874 14C29.4299 15.7252 27.8638 17 26 17C24.1362 17 22.5701 15.7252 22.126 14H29.874Z" fill="#222222"/>
<path fill-rule="evenodd" clip-rule="evenodd" d="M6.34177 9H3.13935L0.139353 18H0C0 18.3425 0.0344303 18.6769 0.100018 19C0.563288 21.2822 2.58104 23 5 23C7.41896 23 9.43671 21.2822 9.89998 19C9.96557 18.6769 10 18.3425 10 18H9.84177L6.34177 9ZM8.76881 18H1.19345L3.86011 10H5.6577L8.76881 18ZM8.87398 19C8.42994 20.7252 6.86384 22 5 22C3.13616 22 1.57006 20.7252 1.12602 19H8.87398Z" fill="#222222"/>
<path fill-rule="evenodd" clip-rule="evenodd" d="M12.5 4C12.5 2.61929 13.6193 1.5 15 1.5C16.3807 1.5 17.5 2.61929 17.5 4C17.5 5.38071 16.3807 6.5 15 6.5C13.6193 6.5 12.5 5.38071 12.5 4ZM15 0.5C13.067 0.5 11.5 2.067 11.5 4C11.5 4.27301 11.5313 4.53871 11.5904 4.79373L4.875 6.51562L5.12338 7.48429L11.9578 5.73187C12.5604 6.78801 13.697 7.5 15 7.5C16.9148 7.5 18.4705 5.96236 18.4996 4.05449L24.6234 2.48429L24.375 1.51562L18.371 3.05512C17.9587 1.58113 16.6056 0.5 15 0.5Z" fill="#222222"/>
</svg>
