<svg width="24" height="24" viewBox="0 0 24 24" fill="none" xmlns="http://www.w3.org/2000/svg">
<path fill-rule="evenodd" clip-rule="evenodd" d="M11.6064 0.375C8.48322 0.375 8.09126 0.388656 6.86459 0.444479C5.64032 0.500542 4.80466 0.694365 4.07345 0.97875C3.31708 1.27248 2.67548 1.6654 2.03627 2.30484C1.39658 2.94405 1.00367 3.58566 0.708979 4.34178C0.423875 5.07323 0.229813 5.90914 0.174708 7.13293C0.119844 8.35959 0.105469 8.75179 0.105469 11.875C0.105469 14.9982 0.119365 15.389 0.174948 16.6156C0.23125 17.8399 0.425073 18.6756 0.709219 19.4068C1.00319 20.1631 1.3961 20.8048 2.03555 21.444C2.67452 22.0836 3.31613 22.4775 4.07201 22.7713C4.8037 23.0556 5.6396 23.2495 6.86364 23.3055C8.0903 23.3613 8.48202 23.375 11.605 23.375C14.7284 23.375 15.1192 23.3613 16.3459 23.3055C17.5701 23.2495 18.4068 23.0556 19.1384 22.7713C19.8946 22.4775 20.5352 22.0836 21.1742 21.444C21.8139 20.8048 22.2068 20.1631 22.5015 19.407C22.7842 18.6756 22.9783 17.8397 23.0358 16.6159C23.0909 15.3892 23.1052 14.9982 23.1052 11.875C23.1052 8.75179 23.0909 8.35983 23.0358 7.13317C22.9783 5.9089 22.7842 5.07323 22.5015 4.34202C22.2068 3.58566 21.8139 2.94405 21.1742 2.30484C20.5345 1.66516 19.8948 1.27224 19.1377 0.97875C18.4046 0.694365 17.5685 0.500542 16.3442 0.444479C15.1175 0.388656 14.727 0.375 11.6028 0.375H11.6064ZM10.5753 2.44738C10.7756 2.44707 10.9911 2.44716 11.2237 2.44727L11.607 2.44738C14.6775 2.44738 15.0414 2.4584 16.2539 2.51351C17.3752 2.56478 17.9837 2.75213 18.3891 2.90954C18.9258 3.11798 19.3084 3.36714 19.7106 3.76964C20.1131 4.17214 20.3623 4.55548 20.5712 5.09214C20.7286 5.49704 20.9162 6.10558 20.9672 7.22683C21.0224 8.43912 21.0343 8.80329 21.0343 11.8724C21.0343 14.9414 21.0224 15.3056 20.9672 16.5179C20.916 17.6391 20.7286 18.2477 20.5712 18.6526C20.3628 19.1892 20.1131 19.5714 19.7106 19.9736C19.3081 20.3761 18.926 20.6253 18.3891 20.8337C17.9842 20.9919 17.3752 21.1787 16.2539 21.23C15.0416 21.2851 14.6775 21.2971 11.607 21.2971C8.53623 21.2971 8.1723 21.2851 6.96001 21.23C5.83876 21.1782 5.23022 20.9909 4.8246 20.8335C4.28794 20.625 3.9046 20.3759 3.5021 19.9734C3.0996 19.5709 2.85044 19.1885 2.64152 18.6516C2.48411 18.2467 2.29652 17.6382 2.24549 16.5169C2.19038 15.3046 2.17936 14.9405 2.17936 11.8695C2.17936 8.7985 2.19038 8.43625 2.24549 7.22396C2.29676 6.10271 2.48411 5.49416 2.64152 5.08879C2.84996 4.55212 3.0996 4.16879 3.5021 3.76629C3.9046 3.36379 4.28794 3.11462 4.8246 2.9057C5.22998 2.74758 5.83876 2.5607 6.96001 2.50919C8.02088 2.46128 8.43201 2.4469 10.5753 2.44451V2.44738ZM17.7469 4.35684C16.985 4.35684 16.3669 4.97425 16.3669 5.73636C16.3669 6.49824 16.985 7.11636 17.7469 7.11636C18.5087 7.11636 19.1269 6.49824 19.1269 5.73636C19.1269 4.97449 18.5087 4.35636 17.7469 4.35636V4.35684ZM5.69792 11.875C5.69792 8.61364 8.34207 5.96941 11.6034 5.96928C14.8649 5.96928 17.5084 8.61356 17.5084 11.875C17.5084 15.1365 14.8651 17.7795 11.6036 17.7795C8.3422 17.7795 5.69792 15.1365 5.69792 11.875ZM15.4401 11.875C15.4401 9.75776 13.7237 8.04163 11.6068 8.04163C9.48957 8.04163 7.77344 9.75776 7.77344 11.875C7.77344 13.9919 9.48957 15.7083 11.6068 15.7083C13.7237 15.7083 15.4401 13.9919 15.4401 11.875Z" fill="#FF3E17"/>
</svg>
