<svg width="23" height="22" viewBox="0 0 23 22" fill="none" xmlns="http://www.w3.org/2000/svg">
<path fill-rule="evenodd" clip-rule="evenodd" d="M5.41016 2.82215C5.37956 1.43304 4.38619 0.375 2.77312 0.375C1.16004 0.375 0.105469 1.43304 0.105469 2.82215C0.105469 4.1825 1.12887 5.271 2.71191 5.271H2.74204C4.38619 5.271 5.41016 4.1825 5.41016 2.82215ZM5.09812 7.20483H0.382812V21.3724H5.09812V7.20483ZM16.6768 6.87191C19.7797 6.87191 22.1059 8.89724 22.1059 13.2489L22.1057 21.3721H17.3906V13.7925C17.3906 11.8886 16.7082 10.5895 15.0013 10.5895C13.6986 10.5895 12.9226 11.4653 12.5819 12.3112C12.4572 12.6144 12.4266 13.0368 12.4266 13.4602V21.3725H7.71071C7.71071 21.3725 7.77286 8.53437 7.71071 7.20496H12.4266V9.21168C13.0524 8.24701 14.1733 6.87191 16.6768 6.87191Z" fill="#FF3E17"/>
</svg>
