<svg width="17" height="18" viewBox="0 0 17 18" fill="none" xmlns="http://www.w3.org/2000/svg">
<path fill-rule="evenodd" clip-rule="evenodd" d="M10.9036 10.8977C12.941 8.86032 12.941 5.55701 10.9036 3.5196C8.86618 1.48218 5.56287 1.48218 3.52546 3.5196C1.48804 5.55701 1.48804 8.86032 3.52546 10.8977C5.56287 12.9352 8.86618 12.9352 10.9036 10.8977ZM11.903 11.8972C9.31364 14.4866 5.11541 14.4866 2.52603 11.8972C-0.0633626 9.30778 -0.0633626 5.10955 2.52603 2.52017C5.11541 -0.069222 9.31364 -0.069222 11.903 2.52017C14.4924 5.10955 14.4924 9.30778 11.903 11.8972Z" fill="white"/>
<path fill-rule="evenodd" clip-rule="evenodd" d="M11.6065 11.0277L16.2246 16.2188L15.0292 17.2822L10.4111 12.0912L11.6065 11.0277Z" fill="white"/>
</svg>
