<svg xmlns="http://www.w3.org/2000/svg" viewBox="0 0 48 48"><defs><style>.cls-1{fill:#aaa;}</style></defs><title>icn_services_service-companies</title><g id="icon-lib"><path class="cls-1" d="M14,43a4.3,4.3,0,0,0,4-4H10A4.3,4.3,0,0,0,14,43ZM33,17V33H30V11H5V21h5.68a6.84,6.84,0,0,1,1.17-1.6,6.52,6.52,0,0,1,9.2,0A6.84,6.84,0,0,1,22.22,21H17v6h5.22a6.84,6.84,0,0,1-1.17,1.6,6.52,6.52,0,0,1-9.2,0A6.84,6.84,0,0,1,10.68,27H5v9H43V26.85C43,21,39,17,33,17Zm1,26a4.3,4.3,0,0,0,4-4H30A4.3,4.3,0,0,0,34,43Z"/></g></svg>