<svg width="15" height="19" viewBox="0 0 15 19" fill="none" xmlns="http://www.w3.org/2000/svg">
<path fill-rule="evenodd" clip-rule="evenodd" d="M7.83398 8.51724C5.80894 8.51724 4.16732 6.90392 4.16732 4.91379C4.16732 2.92366 5.80894 1.31034 7.83398 1.31034C9.85903 1.31034 11.5007 2.92366 11.5007 4.91379C11.5007 6.90392 9.85903 8.51724 7.83398 8.51724ZM7.83398 9.82759C10.5954 9.82759 12.834 7.62761 12.834 4.91379C12.834 2.19998 10.5954 0 7.83398 0C5.07256 0 2.83398 2.19998 2.83398 4.91379C2.83398 7.62761 5.07256 9.82759 7.83398 9.82759Z" fill="white"/>
<path fill-rule="evenodd" clip-rule="evenodd" d="M0.833984 13.1034C0.833984 11.6561 2.02789 10.4828 3.50065 10.4828H12.1673C13.6401 10.4828 14.834 11.6561 14.834 13.1034V19H13.5007V13.1034C13.5007 12.3798 12.9037 11.7931 12.1673 11.7931H3.50065C2.76427 11.7931 2.16732 12.3798 2.16732 13.1034V19H0.833984V13.1034Z" fill="white"/>
</svg>
