<svg width="26" height="26" viewBox="0 0 26 26" fill="none" xmlns="http://www.w3.org/2000/svg">
<path fill-rule="evenodd" clip-rule="evenodd" d="M13.0001 5.02667C15.4412 5.02667 17.0878 6.08111 18.0267 6.96222L21.6956 3.38C19.4423 1.28556 16.5101 0 13.0001 0C7.91561 0 3.5245 2.91778 1.38672 7.16444L5.59005 10.4289C6.6445 7.29445 9.56227 5.02667 13.0001 5.02667Z" fill="#EA4335"/>
<path fill-rule="evenodd" clip-rule="evenodd" d="M25.48 13.2889C25.48 12.22 25.3933 11.44 25.2056 10.6311H13V15.4555H20.1644C20.02 16.6544 19.24 18.46 17.5067 19.6733L21.6089 22.8511C24.0644 20.5833 25.48 17.2467 25.48 13.2889Z" fill="#4285F4"/>
<path fill-rule="evenodd" clip-rule="evenodd" d="M5.60444 15.5711C5.33 14.7622 5.17111 13.8955 5.17111 13C5.17111 12.1044 5.33 11.2378 5.59 10.4289L1.38667 7.16443C0.505556 8.92665 0 10.9055 0 13C0 15.0944 0.505556 17.0733 1.38667 18.8355L5.60444 15.5711Z" fill="#FBBC05"/>
<path fill-rule="evenodd" clip-rule="evenodd" d="M12.9993 26.0001C16.5093 26.0001 19.4559 24.8445 21.6082 22.8512L17.5059 19.6734C16.4082 20.4389 14.9348 20.9734 12.9993 20.9734C9.5615 20.9734 6.64372 18.7056 5.60372 15.5712L1.40039 18.8356C3.53817 23.0823 7.91484 26.0001 12.9993 26.0001Z" fill="#34A853"/>
</svg>
