<svg width="25" height="23" viewBox="0 0 25 23" fill="none" xmlns="http://www.w3.org/2000/svg">
<path fill-rule="evenodd" clip-rule="evenodd" d="M6.18362 3.35845C4.62536 4.46351 3.77457 6.16186 3.77457 8.55202H3.54335C3.54335 6.08975 4.42819 4.31988 6.04987 3.16985C7.66613 2.02367 9.88914 1.5 12.3295 1.5C14.7698 1.5 16.9928 2.02367 18.6091 3.16985C20.2308 4.31988 21.3468 6.08975 21.3468 8.55202H21.1156C21.1156 6.16186 20.0336 4.46351 18.4753 3.35845C16.9116 2.24953 14.7416 1.73121 12.3295 1.73121C9.91738 1.73121 7.74733 2.24953 6.18362 3.35845Z" stroke="#222222" stroke-width="2"/>
<path fill-rule="evenodd" clip-rule="evenodd" d="M21.1156 14.2168C21.1156 17.8561 18.0497 20.6908 14.4104 20.6908V20.922C18.1774 20.922 21.3468 17.9838 21.3468 14.2168H21.1156Z" stroke="#222222" stroke-width="2"/>
<path d="M20.8844 14.3324C22.5444 14.3324 23.8902 12.9866 23.8902 11.3266C23.8902 9.66654 22.5444 8.32081 20.8844 8.32081V14.3324Z" stroke="#222222" stroke-width="2"/>
<path d="M4.00578 14.3324C2.34573 14.3324 1 12.9866 1 11.3266C1 9.66654 2.34573 8.32081 4.00578 8.32081V14.3324Z" stroke="#222222" stroke-width="2"/>
<path d="M14.8728 20.8064C14.8728 21.1894 13.8894 21.5 12.6763 21.5C11.4632 21.5 10.4798 21.1894 10.4798 20.8064C10.4798 20.4233 11.4632 20.1127 12.6763 20.1127C13.8894 20.1127 14.8728 20.4233 14.8728 20.8064Z" stroke="#222222" stroke-width="2"/>
</svg>
