<svg width="16" height="16" viewBox="0 0 16 16" fill="none" xmlns="http://www.w3.org/2000/svg">
<circle cx="8" cy="8" r="7.5" stroke="#186FAF"/>
<path fill-rule="evenodd" clip-rule="evenodd" d="M8.62111 4.75922C9.58653 5.04114 10.3327 5.98025 10.3327 7.33333C10.3327 8.20821 10.5099 8.70079 10.8378 9.05897C10.8934 9.11974 11.0448 9.25935 11.145 9.35182L11.1451 9.35187C11.1913 9.39447 11.2266 9.42706 11.2367 9.43731L11.3327 9.53465V10.6714H9.2908C9.20742 10.9996 9.00186 11.2872 8.69528 11.4742C8.26797 11.735 7.73073 11.735 7.30342 11.4742C6.95603 11.2623 6.76394 11.0254 6.69533 10.6714H4.66602V9.53465L4.762 9.43731C4.77315 9.42608 4.80999 9.39219 4.85756 9.34843L4.85757 9.34842L4.85759 9.3484C4.95813 9.25591 5.10655 9.11938 5.16134 9.05977C5.48901 8.70325 5.66602 8.21129 5.66602 7.33333C5.66602 5.97639 6.41114 5.03933 7.37779 4.75863C7.41276 4.66843 7.46792 4.58457 7.54284 4.51418C7.79943 4.2731 8.19924 4.2731 8.45583 4.51418C8.53091 4.58473 8.58615 4.66879 8.62111 4.75922ZM7.3922 10.6714H8.57828C8.52464 10.7646 8.44716 10.8447 8.34801 10.9052C8.13393 11.0358 7.86477 11.0358 7.65069 10.9052C7.51956 10.8251 7.43929 10.759 7.3922 10.6714Z" fill="#186FAF"/>
</svg>
