<svg width="33" height="33" viewBox="0 0 33 33" fill="none" xmlns="http://www.w3.org/2000/svg">
<path fill-rule="evenodd" clip-rule="evenodd" d="M16.5 31C8.49187 31 2 24.5081 2 16.5C2 8.49187 8.49187 2 16.5 2C24.5081 2 31 8.49187 31 16.5C31 24.5081 24.5081 31 16.5 31ZM16.5 33C25.6127 33 33 25.6127 33 16.5C33 7.3873 25.6127 0 16.5 0C7.3873 0 0 7.3873 0 16.5C0 25.6127 7.3873 33 16.5 33Z" fill="#2CB1BC"/>
<path fill-rule="evenodd" clip-rule="evenodd" d="M14.3431 21.8118L13.6559 22.5109L12.9433 21.8378L12.9167 21.8127L12.8422 21.7421C12.7777 21.6808 12.6845 21.592 12.5693 21.4817C12.3389 21.2611 12.0199 20.9539 11.6652 20.6071C10.9615 19.9191 10.0975 19.0558 9.51165 18.4048L10.9982 17.0669C11.5374 17.666 12.3609 18.4902 13.0634 19.1771C13.2594 19.3687 13.4443 19.5481 13.609 19.707C13.7556 19.5583 13.9227 19.3888 14.1076 19.2014C14.8445 18.4548 15.8648 17.4228 16.9985 16.2812C19.2638 14.0003 21.9894 11.2746 23.8103 9.51647L25.1995 10.9553C23.3955 12.6971 20.6835 15.409 18.4176 17.6905C17.2857 18.8302 16.2669 19.8607 15.5311 20.6063C15.1633 20.979 14.8662 21.2805 14.6611 21.4888L14.3431 21.8118Z" fill="#2CB1BC"/>
</svg>
