<?xml version="1.0" encoding="utf-8"?>
<!-- Generator: Adobe Illustrator 23.0.1, SVG Export Plug-In . SVG Version: 6.00 Build 0)  -->
<svg version="1.1" id="Слой_1" xmlns="http://www.w3.org/2000/svg" xmlns:xlink="http://www.w3.org/1999/xlink" x="0px" y="0px"
	 viewBox="0 0 20 20" style="enable-background:new 0 0 20 20;" xml:space="preserve">
<style type="text/css">
	.st0{fill-rule:evenodd;clip-rule:evenodd;fill:#222222;}
</style>
<path class="st0" d="M16.1,7.8c-0.4,0-0.8-0.1-1.2-0.2l-7.3,7.3c0.1,0.4,0.2,0.8,0.2,1.2c0,1.9-1.5,3.4-3.4,3.4
	c-0.5,0-0.9-0.1-1.3-0.3l1.7-1.7v-0.7L3.9,16H3.1l-1.7,1.7c-0.2-0.5-0.4-1-0.4-1.6c0-1.9,1.5-3.4,3.4-3.4c0.4,0,0.8,0.1,1.2,0.2
	l7.3-7.3c-0.1-0.4-0.2-0.8-0.2-1.2c0-1.9,1.5-3.4,3.4-3.4c0.5,0,0.9,0.1,1.3,0.3L15.7,3v0.7l0.9,0.9h0.9l1.7-1.7
	c0.2,0.5,0.4,1,0.4,1.6C19.5,6.3,18,7.8,16.1,7.8z"/>
<path class="st0" d="M4.7,3.6L9,7.9L7.9,9L3.6,4.7H2.5L1.1,1.9L2,1l2.7,1.6V3.6z"/>
<path class="st0" d="M10.5,14l3.4-3.4v0.9l5.4,5.4c0,0,0.7,1-0.4,2.1c-1.1,1.1-2.2,0.5-2.2,0.5L11.3,14H10.5z"/>
</svg>
